<svg preserveAspectRatio="none" width="100%" height="100%" overflow="visible" style="display: block;" viewBox="0 0 18.8 18.8" fill="none" xmlns="http://www.w3.org/2000/svg">
<g id="Icon-web chat-16">
<path id="Vector" d="M9.40197 3.13312C8.27171 3.13312 7.14138 3.17735 6.01925 3.26469C4.58967 3.37592 3.38383 4.24937 2.80024 5.48312H2.35044C1.91804 5.48312 1.5671 5.83405 1.5671 6.26645V7.83312C1.5671 8.26552 1.91804 8.61645 2.35044 8.61645H2.35197C2.35197 9.23607 2.38192 9.85505 2.44223 10.4707C2.62945 12.35 4.13605 13.8209 6.02231 13.9682C7.14561 14.0552 8.27781 14.0998 9.40503 14.0998C9.93769 14.0998 10.4674 14.0903 10.9962 14.0707C11.4286 14.0543 11.7646 13.6907 11.7489 13.2583C11.7332 12.8259 11.3665 12.4789 10.938 12.5056C9.35022 12.562 7.73801 12.5291 6.14471 12.4061C5.01592 12.3184 4.11327 11.4395 4.00125 10.3162C3.88923 9.18744 3.88998 8.04315 4.00278 6.91515C4.1148 5.79185 5.01443 4.9145 6.14165 4.82677C8.30678 4.65757 10.4987 4.65757 12.6638 4.82677C13.7691 4.91215 14.6861 5.79799 14.7966 6.88761C14.8302 7.21426 14.8536 7.54087 14.8685 7.8683C14.8881 8.29444 15.2495 8.61813 15.6686 8.61186V8.61645H16.452C16.8844 8.61645 17.2353 8.26552 17.2353 7.83312V6.26645C17.2345 5.83405 16.8828 5.48312 16.4504 5.48312H16.0052C15.4256 4.25093 14.2182 3.37592 12.7847 3.26469C11.6629 3.17735 10.5322 3.13312 9.40197 3.13312ZM9.40044 6.26645C8.8242 6.26645 8.24813 6.28105 7.6716 6.31082C6.45273 6.37427 5.48769 7.3746 5.48377 8.59503V8.63787C5.48769 9.8583 6.45273 10.8571 7.6716 10.9206C8.82466 10.9801 9.97778 10.9801 11.1293 10.9206C12.3481 10.8571 13.3132 9.8583 13.3171 8.63787V8.59503C13.3132 7.3746 12.3481 6.37427 11.1293 6.31082C10.5531 6.28105 9.97668 6.26645 9.40044 6.26645ZM7.83377 7.83312C8.26617 7.83312 8.6171 8.18405 8.6171 8.61645C8.6171 9.04885 8.26617 9.39978 7.83377 9.39978C7.40137 9.39978 7.05044 9.04885 7.05044 8.61645C7.05044 8.18405 7.40137 7.83312 7.83377 7.83312ZM10.9671 7.83312C11.3995 7.83312 11.7504 8.18405 11.7504 8.61645C11.7504 9.04885 11.3995 9.39978 10.9671 9.39978C10.5347 9.39978 10.1838 9.04885 10.1838 8.61645C10.1838 8.18405 10.5347 7.83312 10.9671 7.83312ZM14.8838 9.39978C14.8235 9.39978 14.7635 9.44288 14.7384 9.52983C14.1008 11.7474 13.6319 11.987 12.6347 12.3755C12.5 12.428 12.5 12.6352 12.6347 12.6876C13.6311 13.0762 14.1008 13.3142 14.7384 15.5318C14.7886 15.7057 14.979 15.7057 15.0291 15.5318C15.6667 13.3142 16.1356 13.0762 17.1328 12.6876C17.2675 12.6352 17.2675 12.428 17.1328 12.3755C16.1364 11.987 15.6667 11.7474 15.0291 9.52983C15.004 9.44288 14.9441 9.39978 14.8838 9.39978Z" fill="var(--fill-0, #0F6BEB)"/>
</g>
</svg>
