<svg preserveAspectRatio="none" width="100%" height="100%" overflow="visible" style="display: block;" viewBox="0 0 29.9692 27.7743" fill="none" xmlns="http://www.w3.org/2000/svg">
<g id="Group 19771">
<path id="Vector" d="M18.6725 0.630019L8.19192 0.619056L1.13451 8.9975H12.0893L18.6725 0.630019Z" fill="var(--fill-0, #189AEB)"/>
<path id="Vector_2" d="M23.277 19.3771H12.8074L1.13451 8.99796H12.0893L23.277 19.3771Z" fill="var(--fill-0, #6ED7FF)"/>
<path id="Vector_3" d="M23.4402 5.34143L19.5045 10.5461L14.5465 5.95809L18.6714 0.630095L23.4402 5.34143Z" fill="var(--fill-0, #6ED7FF)"/>
<path id="Vector_4" d="M10.5984 21.9045L5.50341 27.7669L0 22.7843L5.20741 17.0287L10.5984 21.9045Z" fill="var(--fill-0, #6ED7FF)"/>
<path id="Vector_5" d="M23.2781 19.3767H12.8085L5.50442 27.7661L16.4564 27.7743L23.2781 19.3767Z" fill="var(--fill-0, #189AEB)"/>
<path id="Vector_6" d="M27.1079 0L27.7849 2.07748H29.9692L28.2015 3.36289L28.8757 5.44037L27.1079 4.1577L25.3401 5.44037L26.0171 3.36289L24.2493 2.07748H26.4337L27.1079 0Z" fill="var(--fill-0, #6ED7FF)"/>
</g>
</svg>
