<svg xmlns="http://www.w3.org/2000/svg" viewBox="0 0 64 64">
  <!-- Optimized favicon: "S" letter centered with better proportions -->
  <!-- Transparent background, properly scaled and centered -->
  <g transform="translate(12, 4) scale(3.4)">
    <path clipRule="evenodd"
          fillRule="evenodd"
          fill="#189AEB"
          d="M8.45326 7.02772L6.4158 6.18905L6.27273 6.13232C5.01966 5.63898 4.03053 5.27145 4.03053 4.28725C4.03053 3.35979 4.85933 2.78259 6.18887 2.78259C7.36547 2.78259 8.40887 3.17479 9.43747 4.01592L9.51147 4.07759L11.2061 2.03272L11.1469 1.97352C9.81437 0.694873 8.03541 -0.0131594 6.18887 0.000185266C3.00933 0.000185266 0.700532 1.88225 0.700532 4.47718C0.700532 6.84765 2.45187 8.04892 3.9072 8.63845L6.142 9.56099C7.42467 10.0889 8.2732 10.4367 8.2732 11.4603C8.2732 12.484 7.40246 13.1081 5.883 13.1081C4.5954 13.1081 3.14006 12.4914 1.98566 11.4554L1.91167 11.3888L0 13.6088L0.064132 13.668C1.63367 15.1149 3.68915 15.9196 5.8238 15.9225C9.25493 15.9225 11.6501 13.9961 11.6501 11.2359C11.6501 9.24032 10.6338 7.90585 8.4434 7.04252"/>
  </g>
</svg>
