<svg width="12" height="12" viewBox="0 0 12 12" fill="none" xmlns="http://www.w3.org/2000/svg">
<path d="M2.16667 12H9.83335C11.03 12 12 11.03 12 9.83335V2.16667C12 0.97 11.03 0 9.83335 0H2.16667C0.97 0 0 0.97 0 2.16667V9.83335C0 11.03 0.97 12 2.16667 12Z" fill="#00C300"/>
<path d="M10.3711 5.47244C10.3711 3.51744 8.41115 1.92676 6.00215 1.92676C3.59315 1.92676 1.63281 3.51744 1.63281 5.47244C1.63281 7.22509 3.18715 8.69309 5.2868 8.97074C5.42915 9.00144 5.6228 9.06474 5.6718 9.18609C5.7158 9.29644 5.7005 9.46944 5.6858 9.58109C5.6858 9.58109 5.6348 9.88944 5.6235 9.95509C5.6045 10.0654 5.5358 10.3871 6.0018 10.1907C6.46815 9.99444 8.5178 8.70909 9.4345 7.65374C10.0681 6.95974 10.3711 6.25474 10.3711 5.47244ZM4.2918 6.63574H3.4238C3.2975 6.63574 3.1948 6.53309 3.1948 6.40644V4.67009C3.1948 4.54374 3.2975 4.44109 3.4238 4.44109C3.55015 4.44109 3.6528 4.54374 3.6528 4.67009V6.17709H4.2918C4.41815 6.17709 4.5208 6.27974 4.5208 6.40609C4.5208 6.53274 4.41815 6.63574 4.2918 6.63574ZM5.1895 6.40644C5.1895 6.53274 5.0868 6.63574 4.9605 6.63574C4.83415 6.63574 4.7315 6.53309 4.7315 6.40644V4.67009C4.7315 4.54374 4.83415 4.44109 4.9605 4.44109C5.0868 4.44109 5.1895 4.54374 5.1895 4.67009V6.40644ZM7.2795 6.40644C7.2795 6.50544 7.2168 6.59274 7.1228 6.62374C7.09915 6.63174 7.0745 6.63574 7.05015 6.63574C6.9785 6.63574 6.91015 6.60144 6.86715 6.54409L5.9775 5.33244V6.40644C5.9775 6.53274 5.8748 6.63574 5.74815 6.63574C5.6218 6.63574 5.5188 6.53309 5.5188 6.40644V4.67009C5.5188 4.57144 5.5818 4.48409 5.6755 4.45274C5.69915 4.44474 5.7235 4.44109 5.74815 4.44109C5.8195 4.44109 5.88815 4.47544 5.93115 4.53274L6.82115 5.74444V4.67009C6.82115 4.54374 6.92415 4.44109 7.0505 4.44109C7.1768 4.44109 7.2795 4.54374 7.2795 4.67009V6.40644ZM8.68415 5.30909C8.8105 5.30909 8.9135 5.41174 8.9135 5.53844C8.9135 5.66474 8.8108 5.76744 8.68415 5.76744H8.04515V6.17744H8.68415C8.8105 6.17744 8.9135 6.28009 8.9135 6.40644C8.9135 6.53274 8.8105 6.63574 8.68415 6.63574H7.81615C7.69015 6.63574 7.58715 6.53309 7.58715 6.40644V5.53874V5.53809V4.67109C7.58715 4.67074 7.58715 4.67074 7.58715 4.67044C7.58715 4.54409 7.6898 4.44144 7.81615 4.44144H8.68415C8.8105 4.44144 8.9135 4.54409 8.9135 4.67044C8.9135 4.79674 8.8108 4.89944 8.68415 4.89944H8.04515V5.30944L8.68415 5.30909Z" fill="white"/>
</svg>
