<svg width="20" height="20" viewBox="0 0 20 20" fill="none" xmlns="http://www.w3.org/2000/svg">
<path d="M5.20833 17.5H14.7917C16.2875 17.5 17.5 16.2875 17.5 14.7917V5.20833C17.5 3.7125 16.2875 2.5 14.7917 2.5H5.20833C3.7125 2.5 2.5 3.7125 2.5 5.20833V14.7917C2.5 16.2875 3.7125 17.5 5.20833 17.5Z" fill="#00C300"/>
<path d="M15.462 9.34031C15.462 6.89656 13.012 4.9082 10.0007 4.9082C6.98948 4.9082 4.53906 6.89656 4.53906 9.34031C4.53906 11.5311 6.48198 13.3661 9.10654 13.7132C9.28448 13.7516 9.52654 13.8307 9.58779 13.9824C9.64279 14.1203 9.62367 14.3366 9.60529 14.4761C9.60529 14.4761 9.54154 14.8616 9.52742 14.9436C9.50367 15.0816 9.41779 15.4836 10.0003 15.2382C10.5832 14.9928 13.1453 13.3861 14.2912 12.0669C15.0832 11.1994 15.462 10.3182 15.462 9.34031ZM7.86279 10.7944H6.77779C6.61992 10.7944 6.49154 10.6661 6.49154 10.5078V8.33737C6.49154 8.17943 6.61992 8.05112 6.77779 8.05112C6.93573 8.05112 7.06404 8.17943 7.06404 8.33737V10.2211H7.86279C8.02073 10.2211 8.14904 10.3494 8.14904 10.5074C8.14904 10.6657 8.02073 10.7944 7.86279 10.7944ZM8.98492 10.5078C8.98492 10.6657 8.85654 10.7944 8.69867 10.7944C8.54073 10.7944 8.41242 10.6661 8.41242 10.5078V8.33737C8.41242 8.17943 8.54073 8.05112 8.69867 8.05112C8.85654 8.05112 8.98492 8.17943 8.98492 8.33737V10.5078ZM11.5974 10.5078C11.5974 10.6316 11.519 10.7407 11.4015 10.7794C11.372 10.7894 11.3412 10.7944 11.3107 10.7944C11.2212 10.7944 11.1357 10.7516 11.082 10.6799L9.96992 9.16531V10.5078C9.96992 10.6657 9.84154 10.7944 9.68323 10.7944C9.52529 10.7944 9.39654 10.6661 9.39654 10.5078V8.33737C9.39654 8.21406 9.47529 8.10487 9.59242 8.06568C9.62198 8.05568 9.65242 8.05112 9.68323 8.05112C9.77242 8.05112 9.85823 8.09406 9.91198 8.16568L11.0245 9.68031V8.33737C11.0245 8.17943 11.1532 8.05112 11.3112 8.05112C11.469 8.05112 11.5974 8.17943 11.5974 8.33737V10.5078ZM13.3532 9.13612C13.5112 9.13612 13.6399 9.26443 13.6399 9.42281C13.6399 9.58068 13.5115 9.70906 13.3532 9.70906H12.5545V10.2216H13.3532C13.5112 10.2216 13.6399 10.3499 13.6399 10.5078C13.6399 10.6657 13.5112 10.7944 13.3532 10.7944H12.2682C12.1107 10.7944 11.982 10.6661 11.982 10.5078V9.42318V9.42237V8.33862C11.982 8.33818 11.982 8.33818 11.982 8.33781C11.982 8.17987 12.1103 8.05156 12.2682 8.05156H13.3532C13.5112 8.05156 13.6399 8.17987 13.6399 8.33781C13.6399 8.49568 13.5115 8.62406 13.3532 8.62406H12.5545V9.13656L13.3532 9.13612Z" fill="white"/>
</svg>
