<svg width="28" height="28" viewBox="0 0 28 28" fill="none" xmlns="http://www.w3.org/2000/svg">
<path d="M7.29167 24.5H20.7083C22.8025 24.5 24.5 22.8025 24.5 20.7083V7.29167C24.5 5.1975 22.8025 3.5 20.7083 3.5H7.29167C5.1975 3.5 3.5 5.1975 3.5 7.29167V20.7083C3.5 22.8025 5.1975 24.5 7.29167 24.5Z" fill="#00C300"/>
<path d="M21.6515 13.076C21.6515 9.65476 18.2215 6.87109 14.0057 6.87109C9.78996 6.87109 6.35938 9.65476 6.35938 13.076C6.35938 16.1432 9.07946 18.7122 12.7539 19.1981C13.003 19.2518 13.3419 19.3626 13.4276 19.5749C13.5046 19.768 13.4778 20.0708 13.4521 20.2662C13.4521 20.2662 13.3629 20.8058 13.343 20.9207C13.3098 21.1138 13.1896 21.6767 14.0051 21.3331C14.8212 20.9895 18.4081 18.7402 20.0123 16.8933H20.0117C21.1206 15.6788 21.6515 14.4451 21.6515 13.076ZM11.0126 15.1118H9.49363C9.27254 15.1118 9.09288 14.9322 9.09288 14.7105V11.6719C9.09288 11.4508 9.27254 11.2712 9.49363 11.2712C9.71471 11.2712 9.89438 11.4508 9.89438 11.6719V14.3092H11.0126C11.2337 14.3092 11.4134 14.4888 11.4134 14.7099C11.4134 14.9316 11.2337 15.1118 11.0126 15.1118ZM12.5835 14.7105C12.5835 14.9316 12.4039 15.1118 12.1828 15.1118C11.9617 15.1118 11.782 14.9322 11.782 14.7105V11.6719C11.782 11.4508 11.9617 11.2712 12.1828 11.2712C12.4039 11.2712 12.5835 11.4508 12.5835 11.6719V14.7105ZM16.241 14.7105C16.241 14.8838 16.1314 15.0366 15.9669 15.0908C15.9255 15.1048 15.8823 15.1118 15.8397 15.1118C15.7143 15.1118 15.5947 15.0518 15.5195 14.9514L13.9625 12.831V14.7105C13.9625 14.9316 13.7829 15.1118 13.5612 15.1118C13.3401 15.1118 13.1599 14.9322 13.1599 14.7105V11.6719C13.1599 11.4993 13.2701 11.3464 13.434 11.2916C13.4755 11.2776 13.518 11.2712 13.5612 11.2712C13.686 11.2712 13.8062 11.3313 13.8815 11.4316L15.439 13.552V11.6719C15.439 11.4508 15.6192 11.2712 15.8403 11.2712C16.0614 11.2712 16.241 11.4508 16.241 11.6719V14.7105ZM18.6992 12.7902C18.9203 12.7902 19.1005 12.9698 19.1005 13.1915C19.1005 13.4126 18.9209 13.5923 18.6992 13.5923H17.581V14.3098H18.6992C18.9203 14.3098 19.1005 14.4894 19.1005 14.7105C19.1005 14.9316 18.9203 15.1118 18.6992 15.1118H17.1802C16.9597 15.1118 16.7795 14.9322 16.7795 14.7105V13.1921V13.1909V11.6737C16.7795 11.6731 16.7795 11.6731 16.7795 11.6725C16.7795 11.4514 16.9591 11.2718 17.1802 11.2718H18.6992C18.9203 11.2718 19.1005 11.4514 19.1005 11.6725C19.1005 11.8936 18.9209 12.0733 18.6992 12.0733H17.581V12.7908L18.6992 12.7902Z" fill="white"/>
</svg>
