<svg width="20" height="20" viewBox="0 0 20 20" fill="none" xmlns="http://www.w3.org/2000/svg">
<path d="M17.5 9.83201C17.5 13.8708 14.1437 17.1445 10 17.1445C9.38086 17.1445 8.78125 17.0718 8.20625 16.9331C8.03164 16.891 7.84922 16.9071 7.68906 16.9874L6.04766 17.8083C5.62375 18.02 5.125 17.7119 5.125 17.2379V15.7285C5.125 15.5129 5.02863 15.3119 4.86965 15.1664C3.40938 13.8314 2.5 11.9358 2.5 9.83201C2.5 5.7932 5.85625 2.51953 10 2.51953C14.1437 2.51953 17.5 5.7932 17.5 9.83201Z" fill="url(#paint0_radial_948_26022)"/>
<path opacity="0.05" d="M14.1219 7.50421C13.9614 7.50421 13.8058 7.55742 13.6719 7.65828L11.5367 9.23892C11.4869 9.27642 11.4317 9.29521 11.3736 9.29521C11.3174 9.29521 11.2644 9.27757 11.2198 9.24421L9.73031 8.12289C9.42734 7.89757 9.07031 7.77871 8.69641 7.77871C8.1054 7.77871 7.56211 8.07535 7.24297 8.57221L6.78883 9.28128L5.24383 11.7919C5.09688 12.0222 5.08555 12.3064 5.2172 12.5472C5.35148 12.7924 5.60508 12.9447 5.87875 12.9447C6.0392 12.9447 6.19484 12.8915 6.32867 12.7906L8.46391 11.21C8.51367 11.1725 8.56891 11.1537 8.62703 11.1537C8.6832 11.1537 8.73617 11.1713 8.78086 11.2047L10.2703 12.3261C10.5737 12.5517 10.9304 12.6702 11.3042 12.6702C11.8952 12.6702 12.4385 12.3735 12.7577 11.8767L13.212 11.1676L14.757 8.65692C14.9039 8.42664 14.9152 8.14242 14.7836 7.90171C14.6493 7.65642 14.3957 7.50421 14.1219 7.50421Z" fill="black"/>
<path opacity="0.07" d="M14.1205 7.69113C14.0008 7.69113 13.8841 7.73127 13.7833 7.80735L11.6469 9.38906C11.566 9.45027 11.4714 9.48213 11.3724 9.48213C11.2753 9.48213 11.1834 9.45134 11.1061 9.39363L9.61627 8.27199C9.34666 8.07135 9.02826 7.96564 8.69491 7.96564C8.16798 7.96564 7.68394 8.23 7.39927 8.67327L6.94541 9.38234L5.40241 11.8903C5.29102 12.0648 5.28241 12.2778 5.38209 12.4570C5.48327 12.6393 5.67577 12.7570 5.87752 12.7570C5.99716 12.7570 6.11377 12.7169 6.2146 12.6408L8.35095 11.059C8.43177 10.9978 8.52645 10.966 8.62541 10.966C8.72252 10.966 8.81438 10.9968 8.89177 11.0545L10.3816 12.1761C10.6512 12.3768 10.9696 12.4825 11.3029 12.4825C11.8299 12.4825 12.3139 12.218 12.5986 11.7748L13.0524 11.0658L14.5955 8.55777C14.707 8.38327 14.7155 8.17027 14.6159 7.99113C14.5146 7.80885 14.3225 7.69113 14.1205 7.69113Z" fill="black"/>
<path d="M13.8986 7.95799L11.7611 9.54049C11.5324 9.71299 11.2211 9.71299 10.996 9.54428L9.50586 8.42263C8.87586 7.95392 7.98336 8.11513 7.55961 8.77513L7.10547 9.48419L5.56445 11.9889C5.33961 12.3414 5.77086 12.7426 6.10461 12.4914L8.24211 10.9089C8.47086 10.7364 8.78211 10.7364 9.00711 10.9408L10.4973 12.0625C11.1273 12.5312 12.0198 12.37 12.4436 11.71L12.8977 11.001L14.4387 8.49619C14.6636 8.14371 14.2323 7.74249 13.8986 7.95799Z" fill="white"/>
<defs>
<radialGradient id="paint0_radial_948_26022" cx="0" cy="0" r="1" gradientUnits="userSpaceOnUse" gradientTransform="translate(5.15762 17.1363) scale(17.8545)">
<stop stop-color="#1292FF"/>
<stop offset="0.079" stop-color="#2982FF"/>
<stop offset="0.23" stop-color="#4E69FF"/>
<stop offset="0.351" stop-color="#6559FF"/>
<stop offset="0.428" stop-color="#6D53FF"/>
<stop offset="0.754" stop-color="#DF47AA"/>
<stop offset="0.946" stop-color="#FF6257"/>
</radialGradient>
</defs>
</svg>
