<svg width="28" height="28" viewBox="0 0 28 28" fill="none" xmlns="http://www.w3.org/2000/svg">
<path d="M24.5 13.7648C24.5 19.4191 19.8012 24.0023 14 24.0023C13.1332 24.0023 12.2937 23.9005 11.4884 23.7062C11.2443 23.6474 10.9891 23.67 10.7644 23.7824L8.4665 24.9316C7.87325 25.2282 7.175 24.7967 7.175 24.1331V22.0199C7.175 21.7181 7.04008 21.4367 6.81748 21.233C4.77313 19.364 3.5 16.7101 3.5 13.7648C3.5 8.11059 8.19875 3.52734 14 3.52734C19.8012 3.52734 24.5 8.11059 24.5 13.7648Z" fill="url(#paint0_radial_948_26022)"/>
<path opacity="0.05" d="M19.7707 10.5059C19.546 10.5059 19.3282 10.5804 19.1407 10.7216L16.1514 12.9345C16.0816 12.987 16.0044 13.0133 15.923 13.0133C15.8443 13.0133 15.7702 12.9886 15.7078 12.9419L13.6225 11.3721C13.1983 11.0566 12.6985 10.8902 12.175 10.8902C11.3476 10.8902 10.5869 11.3054 10.1401 12.0011L9.50437 12.9938L7.34137 16.5087C7.13557 16.8311 7.11982 17.229 7.3041 17.5661C7.49205 17.9094 7.84695 18.1226 8.2302 18.1226C8.4549 18.1226 8.67277 18.048 8.8602 17.9068L11.8495 15.6939C11.9194 15.6414 11.9965 15.6152 12.0779 15.6152C12.1567 15.6152 12.2307 15.6398 12.2932 15.6866L14.3785 17.2563C14.8032 17.5724 15.3025 17.7383 15.8259 17.7383C16.6533 17.7383 17.414 17.323 17.8608 16.6274L18.4966 15.6346L20.6596 12.1197C20.8654 11.7974 20.8811 11.3994 20.6968 11.0624C20.5089 10.719 20.154 10.5059 19.7707 10.5059Z" fill="black"/>
<path opacity="0.07" d="M19.7686 10.7676C19.6011 10.7676 19.4378 10.8238 19.2966 10.9303L16.3057 13.1448C16.1923 13.2304 16.06 13.275 15.9214 13.275C15.7854 13.275 15.6568 13.2319 15.5486 13.1511L13.4628 11.5808C13.0853 11.2999 12.6396 11.1519 12.1729 11.1519C11.4352 11.1519 10.7575 11.522 10.359 12.1426L9.72373 13.1353L7.56336 16.6465C7.40743 16.8907 7.39536 17.1889 7.53291 17.4398C7.67256 17.695 7.94608 17.8598 8.22853 17.8598C8.39601 17.8598 8.55928 17.8036 8.70051 17.6971L11.6914 15.4826C11.8048 15.397 11.9371 15.3524 12.0757 15.3524C12.2117 15.3524 12.3403 15.3955 12.4485 15.4763L14.5343 17.0466C14.9118 17.3275 15.3575 17.4755 15.8242 17.4755C16.5619 17.4755 17.2396 17.1054 17.6381 16.4848L18.2734 15.4921L20.4337 11.9809C20.5897 11.7367 20.6017 11.4385 20.4642 11.1876C20.3245 10.9324 20.0515 10.7676 19.7686 10.7676Z" fill="black"/>
<path d="M19.458 11.1412L16.4655 13.3567C16.1453 13.5982 15.7095 13.5982 15.3945 13.362L13.3082 11.7917C12.4262 11.1355 11.1767 11.3612 10.5834 12.2852L9.94818 13.2775L7.79043 16.7845C7.47543 17.278 8.07918 17.8397 8.54643 17.488L11.5389 15.2725C11.8592 15.031 12.2949 15.031 12.6099 15.2672L14.6963 16.8375C15.5783 17.4937 16.8278 17.268 17.421 16.344L18.0563 15.3517L20.214 11.8447C20.529 11.3512 19.9253 10.7895 19.458 11.1412Z" fill="white"/>
<defs>
<radialGradient id="paint0_radial_948_26022" cx="0" cy="0" r="1" gradientUnits="userSpaceOnUse" gradientTransform="translate(7.22067 23.9908) scale(24.9963)">
<stop stop-color="#1292FF"/>
<stop offset="0.079" stop-color="#2982FF"/>
<stop offset="0.23" stop-color="#4E69FF"/>
<stop offset="0.351" stop-color="#6559FF"/>
<stop offset="0.428" stop-color="#6D53FF"/>
<stop offset="0.754" stop-color="#DF47AA"/>
<stop offset="0.946" stop-color="#FF6257"/>
</radialGradient>
</defs>
</svg>
